<svg xmlns="http://www.w3.org/2000/svg" viewBox="0 0 317.5 92.5"><defs><style>.cls-1{font-size:18.9px;fill:#7a7a7a;font-family:Raleway-Thin, Raleway;letter-spacing:0.14em;}.cls-2{letter-spacing:0.13em;}.cls-3{letter-spacing:0.14em;}.cls-4{letter-spacing:0.14em;}.cls-5{letter-spacing:0.12em;}.cls-6{font-size:53.63px;fill:#848484;font-family:Raleway-ExtraBold, Raleway;font-weight:700;letter-spacing:-0.09em;}.cls-7{letter-spacing:-0.04em;}.cls-8{letter-spacing:-0.05em;}.cls-9{letter-spacing:-0.07em;}.cls-10{fill:#e74424;}</style></defs><title>logo-horizontal</title><g id="Layer_2" data-name="Layer 2"><g id="Layer_1-2" data-name="Layer 1"><text class="cls-1" transform="translate(113.87 82.46)">maispa<tspan class="cls-2" x="76.71" y="0">r</tspan><tspan class="cls-3" x="85.33" y="0">ana.</tspan><tspan class="cls-4" x="129.4" y="0">c</tspan><tspan x="142.12" y="0">om.b</tspan><tspan class="cls-5" x="195.33" y="0">r</tspan></text><text class="cls-6" transform="translate(112.5 63.96)">P<tspan class="cls-7" x="28.85" y="0">A</tspan><tspan class="cls-8" x="62.64" y="0">R</tspan><tspan class="cls-7" x="95.83" y="0">AN</tspan><tspan class="cls-9" x="168.18" y="0">Á</tspan></text><path class="cls-10" d="M1.06,43.63H33.92l.28.68,1.21,3.86,3.81-14.36a2.63,2.63,0,0,1,2.54-1.93h.06a2.66,2.66,0,0,1,2.52,2.05l1.52,6.59,3.3-13.9a2.65,2.65,0,0,1,2.58-2h.12a2.63,2.63,0,0,1,2.49,2.27L57,45.37v0a2.64,2.64,0,0,1,2.53-1.86h33V33.93a4.84,4.84,0,0,0-4.84-4.84H63.41V4.84A4.84,4.84,0,0,0,58.57,0H33.93a4.84,4.84,0,0,0-4.84,4.84V29.09H4.84A4.84,4.84,0,0,0,0,33.93v9.7Z"/><path class="cls-10" d="M56.05,59h0Z"/><path class="cls-10" d="M91.52,48.74H61.44l-2.94,9.5A2.64,2.64,0,0,1,56,60.1h-.22a2.62,2.62,0,0,1-2.4-2.27l-2.3-16.35L48.39,52.72a2.65,2.65,0,0,1-5.15,0l-1.72-7.44L37.39,60.15a2.65,2.65,0,0,1-2.54,1.94H34.6a2.65,2.65,0,0,1-2.38-2.33L29.83,48.91H0v9.66a4.84,4.84,0,0,0,4.84,4.84H29.09V87.66a4.84,4.84,0,0,0,4.84,4.84H58.57a4.84,4.84,0,0,0,4.84-4.84V63.41H87.66a4.84,4.84,0,0,0,4.84-4.84V48.74Z"/></g></g></svg>